<?xml version="1.0" encoding="utf-8"?>
<!-- Generator: Adobe Illustrator 26.1.0, SVG Export Plug-In . SVG Version: 6.00 Build 0)  -->
<svg version="1.1" id="Layer_1" xmlns="http://www.w3.org/2000/svg" xmlns:xlink="http://www.w3.org/1999/xlink" x="0px" y="0px"
	 viewBox="0 0 450.9 253.9" style="enable-background:new 0 0 450.9 253.9;" xml:space="preserve">
<style type="text/css">
	.st0{fill:#7C7A79;}
	.st1{fill:#FFFFFF;stroke:#636362;stroke-miterlimit:10;}
	.st2{fill:none;stroke:#636362;stroke-linecap:round;stroke-linejoin:round;stroke-miterlimit:10;}
	.st3{fill:#FFFFFF;stroke:#636362;stroke-linecap:round;stroke-linejoin:round;stroke-miterlimit:10;}
	.st4{fill:#999999;}
	.st5{fill:#FFFFFF;}
	.st6{fill:#FFFFFF;stroke:#636362;stroke-width:0.871;stroke-miterlimit:10;}
	.st7{fill:#FFFFFF;stroke:#636362;stroke-width:0.6939;stroke-miterlimit:10;}
	.st8{fill:#FFFFFF;stroke:#636362;stroke-width:0.7557;stroke-miterlimit:10;}
	.st9{fill:#FFFFFF;stroke:#636362;stroke-width:0.6748;stroke-miterlimit:10;}
	.st10{fill:#FFFFFF;stroke:#636362;stroke-width:0.749;stroke-miterlimit:10;}
	.st11{opacity:0.4;}
	.st12{opacity:0.2372;fill:#3CA1D3;enable-background:new    ;}
	.st13{fill:#8E5429;}
	.st14{fill:#EF5B5B;}
	.st15{fill:#BC824A;}
	.st16{opacity:0.3578;}
	.st17{fill:#B65B0B;}
	.st18{fill:#FFD53A;}
	.st19{opacity:0.1755;fill:#303030;enable-background:new    ;}
	.st20{clip-path:url(#SVGID_00000134247580745295134290000006686572375740674982_);}
	.st21{fill:#303030;}
	.st22{opacity:0.2372;fill:#FFD53A;enable-background:new    ;}
	.st23{fill:none;stroke:#FFFFFF;stroke-linecap:round;stroke-linejoin:round;stroke-miterlimit:10;}
	.st24{fill:none;stroke:#636362;stroke-width:0.6939;stroke-miterlimit:10;}
	.st25{fill:none;stroke:#636362;stroke-miterlimit:10;}
</style>
<g id="OBJECTS">
	<g>
		<g>
			<g>
				<path class="st0" d="M137.8,184.6c5,8.9,8.1,18.8,8.9,29c0.4,5.2,0.3,10.4-0.4,15.6c-0.4,2.9,1.4,8.7-3.4,8.8
					c-2.1,0-4.1-1.2-6.1-1.9c-4.5-1.5-9.5-0.1-14.2,0.4c-3.8,0.4-7.6,0.3-11.4,0.2c-4.8-0.2-9.6-0.3-14.2-1.5s-9.1-3.4-12.2-7.1
					c-2.1-2.6-3.5-6-2.6-9.2c0.5-1.7,1.5-3.2,2.7-4.5c1.8-1.9,4-3.4,6.4-4.4c3.6-1.5,8.3-2.4,9.4-6.1c0.9-3.1-1.3-6.1-2.9-8.9
					c-1.6-2.8-2.5-7,0.3-8.7c2.1-1.4,5.1-0.2,7.3-1.4c3-1.6,2.5-6,1.8-9.3c-0.9-4.1-1.7-8.3-2.2-12.5c-0.4-3.4-0.2-7.7,2.9-9.1
					c3.3-1.4,6.6,1.7,8.4,4.8c1.8,3,3.1,6.4,3.9,9.8c0.6,2.6,0.9,5.4,2.4,7.6c2.7,4.1,5.4,1.7,8.9,2.4
					C134.4,179.3,136.3,182,137.8,184.6z"/>
			</g>
		</g>
		<g>
			<path class="st1" d="M144.3,229.6c-0.4-1-8.2-2.8-9.5-3.3c-3.1-1.2-6.2-2.4-9.3-3.8c-5.5-2.4-11.9-4.5-16.6-8.2
				c-0.8-0.7-1.7-1.5-1.7-2.6c0-1,0.9-1.9,1.8-2.2c1-0.3,2-0.1,3,0.2c0.4,0.1,0.8,0.2,1.1,0.1c0.5-0.2,0.7-0.9,0.5-1.5
				c-0.2-0.5-0.7-0.9-1.2-1.2c-3.7-2.5-8.1-3.9-11.9-6.1c-3.5-2-7.3-5.5-8-9.6c-0.7-4,3.4-6.7,3.7-10.7c0.2-3.1-1.6-5.9-3.1-8.6
				c-1.5-2.7-2.6-6.2-1-8.8c2-3.2,7-3,10-0.7s4.5,5.9,6.3,9.2c1.4,2.6,3.7,6.8,6.1,8.6c1.3,1,3.2,1.3,4.5,0.4c0.8-0.6,1.3-1.5,2-2.3
				c2.6-2.7,7.5-1.4,9.6,1.8c2,3.1,1.8,7.2,0.9,10.9c-0.4,1.6-0.8,3.2-0.5,4.8s1.8,3.1,3.4,2.8c1-0.2,1.8-1,2.8-1
				c1.2-0.1,2.2,1,2.6,2.1c0.4,1.1,0.2,2.4,0.1,3.6C139.2,212.9,141.1,221,144.3,229.6z"/>
			<path class="st0" d="M96.9,166.6c2.9,9.2,7,17.9,12.2,26c0.1,0.3,0.1,0.7,0.2,1s0.4,0.4,0.6,0.2c0.3,0.4,0.6,0.9,0.9,1.3
				c-4.5-3.2-9-6.1-12.7-10.4c-0.2-0.3-0.6,0.1-0.4,0.3c3.9,4.6,8.5,9.3,14.3,11.7l0,0c6.2,8.6,13.8,17.2,22.7,23
				c0.4,0.2,0.9-0.3,0.6-0.6c-4.1-3.7-8.1-7.4-11.9-11.2c0.1-7.7-1.8-16-5.1-22.9c-0.1-0.2-0.4-0.1-0.4,0.1c2.3,7.3,3.7,14.4,4.7,22
				c-3.4-3.5-6.7-7.2-9.7-11.3c-1-1.4-2-2.8-2.9-4.2c-0.5-6.3-2.9-12.6-6.1-18c-0.1-0.2-0.5-0.1-0.4,0.2c2.4,5,3.8,10.2,5,15.5
				c-4.5-7.2-8.2-14.8-11-22.8C97.4,166,96.8,166.2,96.9,166.6z"/>
		</g>
		<g>
			<path class="st2" d="M133.8,182.4c-8.5-14.4-13.3-31-14.4-47.7c-0.3-4.3-0.3-8.8,1.2-12.9"/>
			<path class="st3" d="M118.7,132c0.9-2.6,1.8-5.1,2.7-7.7c0.8-2.2,1.5-4.6,0.5-6.7c-0.1-0.2-0.2-0.4-0.4-0.4
				c-0.3-0.1-0.6,0.1-0.8,0.3c-1.7,1.6-2.3,4.1-2.2,6.4C118.6,126.2,118.4,129.7,118.7,132"/>
			<path class="st3" d="M119.6,142.6c-3.5-1.9-6.3-4.9-8-8.5c-0.2-0.5-0.5-1.2-0.2-1.6c0.4-0.6,1.3-0.6,1.9-0.3
				c1.1,0.5,1.8,1.5,2.5,2.5c1.5,2.2,2.9,4.6,4,7.1"/>
			<path class="st3" d="M121.7,153.6c-3.6-2-6.6-5.2-8.4-8.9c-0.3-0.5-0.5-1.2-0.2-1.7c0.4-0.6,1.3-0.6,2-0.3
				c1.1,0.5,1.9,1.6,2.6,2.6c1.6,2.3,3,4.8,4.2,7.4"/>
			<path class="st3" d="M126,166.1c-4.1-0.8-7.9-2.8-10.8-5.8c-0.4-0.4-0.9-1-0.7-1.6c0.2-0.7,1.1-1,1.8-0.9
				c1.2,0.1,2.3,0.9,3.3,1.6c2.3,1.7,4.4,3.6,6.4,5.7"/>
			<path class="st3" d="M119.6,136.2c2.6-2.4,4.5-5.6,5.2-9c0.1-0.5,0.2-1.1-0.2-1.5c-0.4-0.4-1.2-0.2-1.7,0.2
				c-0.8,0.7-1.3,1.7-1.7,2.7c-0.9,2.3-1.6,4.6-2,7"/>
			<path class="st3" d="M121.3,146.9c3.1-2.8,5.3-6.6,6.2-10.8c0.1-0.6,0.2-1.3-0.2-1.7c-0.5-0.5-1.4-0.3-2,0.2c-1,0.8-1.5,2-2,3.2
				c-1,2.7-1.9,5.5-2.4,8.3"/>
			<path class="st3" d="M124.2,158.7c3.1-2.8,5.3-6.6,6.2-10.8c0.1-0.6,0.2-1.3-0.2-1.7c-0.5-0.5-1.4-0.3-2,0.2c-1,0.8-1.5,2-2,3.2
				c-1,2.7-1.9,5.5-2.4,8.3"/>
			<path class="st3" d="M128.4,171c3.1-2.8,5.3-6.6,6.2-10.8c0.1-0.6,0.2-1.3-0.2-1.7c-0.5-0.5-1.4-0.3-2,0.2c-1,0.8-1.5,2-2,3.2
				c-1,2.7-1.9,5.5-2.4,8.3"/>
		</g>
		<g>
			<path class="st0" d="M304.8,184.6c-5.6,8.9-9,18.8-9.9,29c-0.5,5.2-0.3,10.4,0.4,15.6c0.4,2.9-1.5,8.7,3.7,8.8
				c2.4,0,4.5-1.2,6.8-1.9c5-1.5,10.5-0.1,15.8,0.4c4.2,0.4,8.5,0.3,12.7,0.2c5.3-0.2,10.6-0.3,15.8-1.5c5.1-1.2,10.1-3.4,13.5-7.1
				c2.4-2.6,3.9-6,2.9-9.2c-0.5-1.7-1.7-3.2-3-4.5c-2-1.9-4.4-3.4-7.1-4.4c-4-1.5-9.2-2.4-10.4-6.1c-1-3.1,1.4-6.1,3.3-8.9
				c1.8-2.8,2.7-7-0.3-8.7c-2.4-1.4-5.7-0.2-8.1-1.4c-3.3-1.6-2.8-6-2-9.3c1.1-4.1,1.9-8.3,2.5-12.5c0.5-3.4,0.3-7.7-3.2-9.1
				c-3.6-1.4-7.4,1.7-9.3,4.8c-2,3-3.4,6.4-4.3,9.8c-0.7,2.6-1,5.4-2.6,7.6c-3,4.1-6,1.7-9.9,2.4C308.6,179.3,306.5,182,304.8,184.6
				z"/>
		</g>
		<g>
			<path class="st1" d="M302,221c0.4-1,8.4-2.9,9.7-3.4c3.2-1.2,6.4-2.5,9.5-3.9c5.6-2.5,12.2-4.6,17-8.4c0.9-0.7,1.8-1.5,1.8-2.6
				c0-1-0.9-1.9-1.9-2.2s-2.1-0.1-3.1,0.2c-0.4,0.1-0.8,0.2-1.2,0.1c-0.5-0.2-0.7-1-0.5-1.5s0.7-0.9,1.2-1.2c3.8-2.6,8.3-4,12.2-6.2
				c3.5-2,7.5-5.6,8.2-9.9c0.7-4.1-3.5-6.9-3.8-11c-0.3-3.2,1.7-6,3.2-8.8s2.7-6.3,1-9c-2-3.3-7.2-3-10.2-0.7s-4.6,6.1-6.4,9.5
				c-1.4,2.7-3.8,7-6.3,8.8c-1.3,1-3.3,1.4-4.6,0.4c-0.9-0.6-1.3-1.6-2-2.3c-2.6-2.8-7.7-1.4-9.8,1.8c-2.1,3.2-1.8,7.4-1,11.1
				c0.4,1.6,0.8,3.3,0.5,4.9c-0.3,1.6-1.8,3.2-3.4,2.9c-1-0.2-1.9-1-2.9-1c-1.2-0.1-2.3,1-2.7,2.1c-0.4,1.2-0.2,2.4-0.1,3.6
				C307.2,203.9,305.2,212.2,302,221z"/>
			<path class="st0" d="M350.5,156.5c-3,9.4-7.2,18.4-12.5,26.6c-0.1,0.3-0.1,0.7-0.2,1s-0.4,0.4-0.6,0.2c-0.3,0.4-0.6,0.9-0.9,1.3
				c4.6-3.3,9.2-6.3,13.1-10.6c0.2-0.3,0.6,0.1,0.4,0.4c-4,4.7-8.8,9.6-14.6,11.9l0,0c-6.3,8.8-14.1,17.6-23.2,23.5
				c-0.4,0.3-1-0.3-0.6-0.6c4.2-3.8,8.3-7.5,12.2-11.5c-0.1-7.9,1.9-16.3,5.3-23.5c0.1-0.2,0.4-0.1,0.4,0.1
				c-2.3,7.5-3.8,14.8-4.8,22.5c3.5-3.6,6.9-7.4,9.9-11.6c1-1.4,2-2.9,3-4.3c0.5-6.5,3-12.9,6.2-18.5c0.1-0.2,0.5-0.1,0.4,0.2
				c-2.5,5.2-3.9,10.4-5.1,15.9c4.6-7.3,8.4-15.2,11.2-23.4C350,155.9,350.6,156.1,350.5,156.5z"/>
		</g>
		<g>
			<g>
				<g>
					<path class="st4" d="M314.9,225.2c11-0.4,22-3.3,32.2-7.4c5-2,9.8-4.3,14.4-7c4.2-2.4,8.5-5.1,11.2-9.2c0.3-0.4-0.4-1-0.7-0.6
						c-6.6,7.8-17.1,12.6-26.4,16.2c-9.9,3.9-20.1,6-30.7,7.2C314.4,224.4,314.4,225.2,314.9,225.2L314.9,225.2z"/>
				</g>
			</g>
			<path class="st3" d="M365.1,208.2c1.8-2.1,3.5-4.1,5.3-6.2c1.5-1.7,3.2-3.6,5.5-3.8c0.2,0,0.4,0,0.6,0.1c0.2,0.2,0.2,0.5,0.1,0.8
				c-0.6,2.3-2.4,4-4.5,5.1c-2,1.1-4.9,3-7.1,3.7"/>
			<path class="st3" d="M355.7,213.9c3.5,1.8,7.6,2.4,11.6,1.8c0.6-0.1,1.2-0.3,1.4-0.8c0.3-0.6-0.3-1.4-0.9-1.7
				c-1-0.6-2.3-0.7-3.5-0.7c-2.7,0-5.4,0.2-8.1,0.7"/>
			<path class="st3" d="M345.5,218.4c3.7,1.8,8,2.5,12.1,1.9c0.6-0.1,1.3-0.3,1.5-0.8c0.3-0.7-0.3-1.4-0.9-1.8
				c-1.1-0.6-2.4-0.7-3.6-0.7c-2.8,0-5.7,0.3-8.5,0.7"/>
			<path class="st3" d="M332.8,222c2.9,2.9,6.8,4.9,10.9,5.6c0.6,0.1,1.3,0.1,1.7-0.3c0.5-0.5,0.2-1.4-0.3-2c-0.8-0.9-2-1.4-3.2-1.8
				c-2.7-0.9-5.5-1.6-8.3-2"/>
			<path class="st3" d="M360.4,210c0.5-3.5,2.1-6.8,4.5-9.4c0.3-0.4,0.8-0.8,1.3-0.7c0.6,0.1,0.9,0.9,0.8,1.5
				c-0.1,1.1-0.7,2-1.3,2.9c-1.4,2-2.9,3.9-4.6,5.6"/>
			<path class="st3" d="M351.2,214.9c0.6-4.2,2.5-8.1,5.3-11.2c0.4-0.4,1-0.9,1.6-0.8c0.7,0.1,1,1,1,1.8c-0.1,1.3-0.8,2.4-1.5,3.5
				c-1.6,2.4-3.5,4.6-5.5,6.7"/>
			<path class="st3" d="M339.9,219.2c0.6-4.2,2.4-8.1,5.3-11.2c0.4-0.4,1-0.9,1.6-0.8c0.7,0.1,1,1,1,1.8c-0.1,1.3-0.8,2.4-1.5,3.5
				c-1.6,2.4-3.5,4.6-5.5,6.7"/>
			<path class="st3" d="M327.4,222.7c0.6-4.2,2.4-8.1,5.3-11.2c0.4-0.4,1-0.9,1.6-0.8c0.7,0.1,1,1,1,1.8c-0.1,1.3-0.8,2.4-1.5,3.5
				c-1.6,2.4-3.5,4.6-5.5,6.7"/>
		</g>
		<path class="st1" d="M302.9,90H298c-0.8-3.8-2.3-7.3-4.3-10.4l3.4-3.4c0.8-0.8,0.8-2.1,0-2.9l-5.9-5.9c-0.8-0.8-2.1-0.8-2.9,0
			l-3.4,3.4c-3.1-2.1-6.7-3.6-10.4-4.4v-4.8c0-1.1-0.9-2.1-2.1-2.1H264c-1.1,0-2.1,0.9-2.1,2.1v4.8c-3.8,0.8-7.3,2.3-10.4,4.4
			l-3.4-3.4c-0.8-0.8-2.1-0.8-2.9,0l-5.9,5.9c-0.8,0.8-0.8,2.1,0,2.9l3.4,3.4c-2,3.1-3.5,6.6-4.3,10.4h-4.9c-1.1,0-2.1,0.9-2.1,2.1
			v8.4c0,1.1,0.9,2.1,2.1,2.1h4.9c0.8,3.8,2.3,7.3,4.3,10.4l-3.5,3.5c-0.8,0.8-0.8,2.1,0,2.9l5.9,5.9c0.8,0.8,2.1,0.8,2.9,0l3.5-3.5
			c3.1,2,6.6,3.5,10.4,4.3v5c0,1.1,0.9,2.1,2.1,2.1h8.4c1.1,0,2.1-0.9,2.1-2.1v-5c3.8-0.8,7.2-2.3,10.4-4.3l3.5,3.5
			c0.8,0.8,2.1,0.8,2.9,0l5.9-5.9c0.8-0.8,0.8-2.1,0-2.9l-3.5-3.5c2-3.1,3.5-6.6,4.3-10.4h4.9c1.1,0,2.1-0.9,2.1-2.1v-8.4
			C304.9,91,304,90,302.9,90z M256.9,107.5c-6.2-6.2-6.2-16.3,0-22.6c6.2-6.2,16.3-6.2,22.6,0c6.2,6.2,6.2,16.3,0,22.6
			C273.2,113.7,263.1,113.7,256.9,107.5z M260.5,88.5c4.2-4.2,11.1-4.2,15.4,0"/>
		<g>
			<path class="st1" d="M350.7,120.7h-3.4c-0.5-2.7-1.6-5.1-3-7.3l2.4-2.4c0.6-0.6,0.6-1.5,0-2l-4.2-4.2c-0.6-0.6-1.5-0.6-2,0
				l-2.4,2.4c-2.2-1.4-4.7-2.5-7.3-3.1v-3.4c0-0.8-0.6-1.4-1.4-1.4h-5.9c-0.8,0-1.4,0.6-1.4,1.4v3.4c-2.7,0.6-5.1,1.6-7.3,3.1
				l-2.4-2.4c-0.6-0.6-1.5-0.6-2,0l-4.2,4.2c-0.6,0.6-0.6,1.5,0,2l2.4,2.4c-1.4,2.2-2.5,4.7-3,7.3h-3.4c-0.8,0-1.4,0.6-1.4,1.4v5.9
				c0,0.8,0.6,1.4,1.4,1.4h3.4c0.6,2.6,1.6,5.1,3,7.3l-2.5,2.5c-0.6,0.6-0.6,1.5,0,2l4.2,4.2c0.6,0.6,1.5,0.6,2,0l2.5-2.5
				c2.2,1.4,4.6,2.5,7.3,3v3.5c0,0.8,0.6,1.4,1.4,1.4h5.9c0.8,0,1.4-0.6,1.4-1.4v-3.5c2.6-0.6,5.1-1.6,7.3-3l2.5,2.5
				c0.6,0.6,1.5,0.6,2,0l4.2-4.2c0.6-0.6,0.6-1.5,0-2l-2.5-2.5c1.4-2.2,2.5-4.6,3-7.3h3.4c0.8,0,1.4-0.6,1.4-1.4v-5.9
				C352.1,121.3,351.5,120.7,350.7,120.7z M318.4,132.9c-4.4-4.4-4.4-11.5,0-15.8c4.4-4.4,11.5-4.4,15.8,0c4.4,4.4,4.4,11.5,0,15.8
				C329.8,137.3,322.7,137.3,318.4,132.9z"/>
			<path class="st1" d="M326.3,132.4c-1.9,0-3.7-0.7-5.2-2.1"/>
			<path class="st1" d="M321.1,119.9c2.9-2.9,7.5-2.9,10.3,0c1.6,1.6,2.3,3.9,2.1,6"/>
		</g>
		<g>
			<path class="st1" d="M231.3,101.9H311c3.6,0,6.6,2.9,6.6,6.6v119.8H132.7V107.8c0-3.2,2.6-5.8,5.8-5.8h82.3"/>
			<g>
				<path class="st5" d="M119.4,237.1c-4.9,0-8.8-3.9-8.8-8.8v-0.5h229.1v0.5c0,4.9-3.9,8.8-8.8,8.8H119.4z"/>
				<path class="st4" d="M339.2,228.3c0,4.6-3.7,8.3-8.3,8.3H119.4c-4.6,0-8.3-3.7-8.3-8.3H339.2 M340.2,227.3h-1H111.1h-1v1
					c0,5.1,4.2,9.3,9.3,9.3h211.5c5.1,0,9.3-4.2,9.3-9.3L340.2,227.3L340.2,227.3z"/>
			</g>
			<path class="st0" d="M249.5,228.3h-48.8v2.6c0,1.4,1.1,2.5,2.5,2.5H247c1.4,0,2.5-1.1,2.5-2.5V228.3z"/>
			<path class="st4" d="M311.7,109.4v105.7c0,1.2-1.1,2.2-2.3,2.2H140.9c-1.3,0-2.3-1-2.3-2.2V109.4c0-1.2,1.1-2.2,2.3-2.2h168.4
				C310.6,107.1,311.7,108.1,311.7,109.4z"/>
			<g>
				<path class="st5" d="M139,114.6v-5.1c0-1.1,0.9-1.9,1.9-1.9h168.4c1.1,0,1.9,0.9,1.9,1.9v5.1H139z"/>
				<path class="st4" d="M309.3,108c0.8,0,1.5,0.7,1.5,1.5v4.7H139.4v-4.7c0-0.8,0.7-1.5,1.5-1.5H309.3 M309.3,107.1H140.9
					c-1.3,0-2.3,1.1-2.3,2.4v5.6h173.1v-5.6C311.7,108.2,310.6,107.1,309.3,107.1L309.3,107.1z"/>
			</g>
		</g>
		<rect x="32.5" y="236.4" class="st4" width="385.3" height="1.7"/>
		<rect x="200.4" y="11" class="st6" width="20.8" height="9.1"/>
		<rect x="36" y="110.4" class="st7" width="14.4" height="8.3"/>
		<rect x="93" y="55.3" class="st8" width="25.6" height="9"/>
		<rect x="106.8" y="64.3" class="st8" width="24" height="9"/>
		<rect x="106.8" y="46.3" class="st8" width="24" height="9"/>
		<rect x="390.6" y="78.6" class="st9" width="21.4" height="8.1"/>
		<rect x="381.3" y="70.5" class="st9" width="21.4" height="8.1"/>
		<rect x="402.6" y="70.5" class="st9" width="21.4" height="8.1"/>
		<rect x="377" y="146.9" class="st10" width="17.7" height="8.9"/>
		<rect x="50.3" y="123" class="st7" width="24.5" height="8.3"/>
		<g class="st11">
			<g>
				<path class="st12" d="M194.1,139.1l1.4,1.3C195,139.9,194.6,139.5,194.1,139.1z"/>
				<path class="st12" d="M193.8,145.3c0.5-0.1,1-0.4,1.4-0.7L193.8,145.3z"/>
				<path class="st12" d="M252,139.1l1.4,1.3C253,139.9,252.5,139.5,252,139.1z"/>
				<path class="st12" d="M251.8,145.3c0.5-0.1,1-0.4,1.4-0.7L251.8,145.3z"/>
				<path class="st0" d="M288.5,152.7c-0.2,0-0.3-0.1-0.5-0.1h-3.3l0,0h-26.8v-6.4c1.2-0.4,2.1-1.5,2.1-2.9c0-1.7-1.4-3.1-3.1-3.1
					c-1.7,0-3.1,1.4-3.1,3.1c0,1.3,0.8,2.4,2,2.9v6.4h-55.7v-6.4c1.2-0.4,2-1.6,2-2.9c0-1.7-1.4-3.1-3.1-3.1c-1.7,0-3.1,1.4-3.1,3.1
					c0,1.3,0.8,2.5,2,2.9v6.4H168c-1.1,0-1.9,0.9-1.9,1.9v10.1H166v2.8c0,0.5,0.1,0.9,0.4,1.2c0.3,0.6,0.9,0.9,1.6,0.9h6.4v12.9H168
					c-1.1,0-1.9,0.9-1.9,1.9v13.2c0,1.1,0.9,1.9,1.9,1.9h0.3l0,0h6.1v33.5h-3v3h10.9v-3h-3v-22.5h96.2v22.5h-3v3h10.9v-3h-3v-33.5
					h7.6l0,0h0.2c1.1,0,1.9-0.9,1.9-1.9v-0.2v-12.8v-0.2c0-1.1-0.9-1.9-1.9-1.9H288h-3.3h-4.3v-12.9h7.8c1.1,0,1.9-0.9,1.9-1.9v-0.3
					v-12.8v-0.2C290.2,153.6,289.4,152.8,288.5,152.7z M179.4,182.6v-12.9h96.2v12.9H179.4z M179.4,205.9v-6.3h96.2v6.3H179.4z"/>
			</g>
		</g>
		<g>
			<g>
				<g>
					<rect x="252.8" y="145.5" class="st13" width="2.1" height="7.4"/>
					<rect x="195" y="145.5" class="st13" width="2.1" height="7.4"/>
					<path class="st14" d="M257,143.4c0,1.7-1.4,3.1-3.1,3.1c-1.7,0-3.1-1.4-3.1-3.1s1.4-3.1,3.1-3.1
						C255.6,140.3,257,141.7,257,143.4z"/>
					<circle class="st14" cx="196" cy="143.4" r="3.1"/>
					<path class="st14" d="M194,141.7c0.6-0.6,1.5-0.6,2,0c0.6,0.6,0.6,1.5,0,2c-0.6,0.6-1.5,0.6-2,0
						C193.4,143.1,193.4,142.3,194,141.7z"/>
					<circle class="st14" cx="253" cy="142.7" r="1.4"/>
				</g>
				<g>
					<g>
						<g>
							<path class="st14" d="M196,135.9c-0.1,0.5-0.1,0.9-0.1,1.4c0,0.4,0,0.9,0.1,1.3c0.1,0.1,0.2,0.1,0.3,0
								c0.2-0.4,0.1-0.8,0.1-1.3s0-1-0.1-1.4C196.3,135.7,196,135.7,196,135.9L196,135.9z"/>
						</g>
					</g>
					<g>
						<g>
							<path class="st14" d="M192.5,140.3c-0.3-0.5-0.8-1.1-1.4-1.4c-0.2-0.1-0.4,0.2-0.3,0.3c0.4,0.4,0.9,0.8,1.4,1.3
								C192.4,140.7,192.6,140.5,192.5,140.3L192.5,140.3z"/>
						</g>
					</g>
					<g>
						<g>
							<path class="st14" d="M199.1,140.1c0.4-0.2,0.8-0.6,1.2-0.9c0.3-0.2,0.6-0.4,0.8-0.8c0-0.1,0-0.2-0.1-0.2
								c-0.4,0-0.7,0.4-1,0.6c-0.4,0.3-0.8,0.6-1.1,1C198.8,140.1,199,140.2,199.1,140.1L199.1,140.1z"/>
						</g>
					</g>
					<g>
						<g>
							<path class="st14" d="M199.9,144c0.5,0.2,1.2,0.4,1.7,0.3c0.1,0,0.2-0.2,0-0.3c-0.5-0.3-1.2-0.2-1.7-0.2
								C199.8,143.8,199.7,144,199.9,144L199.9,144z"/>
						</g>
					</g>
					<g>
						<g>
							<path class="st14" d="M190.8,145.4c0.5,0,1.1-0.3,1.5-0.6c0.2-0.2,0-0.6-0.2-0.4c-0.4,0.3-0.9,0.5-1.3,0.8
								C190.6,145.2,190.7,145.4,190.8,145.4L190.8,145.4z"/>
						</g>
					</g>
				</g>
				<g>
					<g>
						<g>
							<path class="st14" d="M253.9,135.9c-0.1,0.5-0.1,0.9-0.1,1.4c0,0.4,0,0.9,0.1,1.3c0.1,0.1,0.2,0.1,0.3,0
								c0.2-0.4,0.1-0.8,0.1-1.3s0-1-0.1-1.4C254.2,135.7,253.9,135.7,253.9,135.9L253.9,135.9z"/>
						</g>
					</g>
					<g>
						<g>
							<path class="st14" d="M250.5,140.3c-0.3-0.5-0.8-1.1-1.4-1.4c-0.2-0.1-0.4,0.2-0.3,0.3c0.4,0.4,0.9,0.8,1.4,1.3
								C250.3,140.7,250.6,140.5,250.5,140.3L250.5,140.3z"/>
						</g>
					</g>
					<g>
						<g>
							<path class="st14" d="M257,140.1c0.4-0.2,0.8-0.6,1.2-0.9c0.3-0.2,0.6-0.4,0.8-0.8c0-0.1,0-0.2-0.1-0.2c-0.4,0-0.7,0.4-1,0.6
								c-0.4,0.3-0.8,0.6-1.1,1C256.8,140.1,256.9,140.2,257,140.1L257,140.1z"/>
						</g>
					</g>
					<g>
						<g>
							<path class="st14" d="M257.8,144c0.5,0.2,1.2,0.4,1.7,0.3c0.1,0,0.2-0.2,0-0.3c-0.5-0.3-1.2-0.2-1.7-0.2
								C257.7,143.8,257.7,144,257.8,144L257.8,144z"/>
						</g>
					</g>
					<g>
						<g>
							<path class="st14" d="M248.7,145.4c0.5,0,1.1-0.3,1.5-0.6c0.2-0.2,0-0.6-0.2-0.4c-0.4,0.3-0.9,0.5-1.3,0.8
								C248.6,145.2,248.6,145.4,248.7,145.4L248.7,145.4z"/>
						</g>
					</g>
				</g>
			</g>
			<g>
				<rect x="171.5" y="154.8" class="st15" width="4.8" height="79.2"/>
				<g>
					<rect x="175.5" y="205.9" class="st15" width="97.9" height="4.7"/>
					<g class="st16">
						<g>
							<g>
								<path class="st17" d="M172.7,157.8c-0.2,5.2-0.4,10.4-0.3,15.6c0,0.1,0.2,0.1,0.2,0C173.1,168.3,173.1,162.9,172.7,157.8
									C172.8,157.7,172.7,157.7,172.7,157.8L172.7,157.8z"/>
							</g>
						</g>
						<g>
							<g>
								<path class="st17" d="M173.6,172c-0.1,2.4-0.2,4.8-0.1,7.1c0,0.2,0.2,0.2,0.2,0C173.9,176.7,173.7,174.3,173.6,172
									C173.7,171.9,173.6,171.9,173.6,172L173.6,172z"/>
							</g>
						</g>
						<g>
							<g>
								<path class="st17" d="M175,169.5c-0.1,6.2-0.2,12.5-0.1,18.8c0,0.1,0.1,0.1,0.1,0C175.4,182.1,175.4,175.8,175,169.5
									C175.1,169.5,175,169.5,175,169.5L175,169.5z"/>
							</g>
						</g>
						<g>
							<g>
								<path class="st17" d="M172.7,197.9c0.1,4.5,0,9,0.2,13.5c0,0.1,0.2,0.1,0.2,0C173.3,206.9,173.1,202.4,172.7,197.9
									C172.8,197.9,172.7,197.9,172.7,197.9L172.7,197.9z"/>
							</g>
						</g>
						<g>
							<g>
								<path class="st17" d="M174.2,196c0.1,2.7,0,5.4,0.1,8.1c0,0.1,0.2,0.1,0.2,0C174.7,201.4,174.5,198.7,174.2,196
									C174.3,195.9,174.2,195.9,174.2,196L174.2,196z"/>
							</g>
						</g>
						<g>
							<g>
								<path class="st17" d="M174.6,209c0,3.1-0.2,6.3,0,9.4c0,0.1,0.2,0.1,0.2,0C175,215.3,174.9,212.1,174.6,209
									C174.7,209,174.6,209,174.6,209L174.6,209z"/>
							</g>
						</g>
						<g>
							<g>
								<path class="st17" d="M173,215.1c-0.2,4.7-0.3,9.5,0,14.2c0,0.1,0.1,0.1,0.1,0C173.3,224.5,173.2,219.8,173,215.1
									C173.1,215,173,215,173,215.1L173,215.1z"/>
							</g>
						</g>
						<g>
							<g>
								<path class="st17" d="M174.3,221.1c-0.1,1.5-0.2,3.1-0.1,4.6c0,0.1,0.2,0.1,0.2,0C174.5,224.2,174.5,222.6,174.3,221.1
									C174.4,221,174.3,221,174.3,221.1L174.3,221.1z"/>
							</g>
						</g>
					</g>
					<g class="st16">
						<g>
							<g>
								<path class="st17" d="M263.5,207.2c-5.2-0.2-10.4-0.4-15.6-0.3c-0.1,0-0.1,0.2,0,0.2C253,207.6,258.4,207.6,263.5,207.2
									C263.6,207.3,263.6,207.2,263.5,207.2L263.5,207.2z"/>
							</g>
						</g>
						<g>
							<g>
								<path class="st17" d="M249.3,208.1c-2.4-0.1-4.8-0.2-7.1-0.1c-0.2,0-0.2,0.2,0,0.2C244.6,208.4,247,208.2,249.3,208.1
									C249.4,208.2,249.4,208.1,249.3,208.1L249.3,208.1z"/>
							</g>
						</g>
						<g>
							<g>
								<path class="st17" d="M251.8,209.5c-6.2-0.1-12.5-0.2-18.8-0.1c-0.1,0-0.1,0.1,0,0.1C239.2,209.9,245.5,209.9,251.8,209.5
									C251.8,209.6,251.8,209.5,251.8,209.5L251.8,209.5z"/>
							</g>
						</g>
						<g>
							<g>
								<path class="st17" d="M223.3,207.3c-4.5,0.1-9,0-13.5,0.2c-0.1,0-0.1,0.2,0,0.2C214.3,207.9,218.9,207.6,223.3,207.3
									C223.4,207.3,223.4,207.3,223.3,207.3L223.3,207.3z"/>
							</g>
						</g>
						<g>
							<g>
								<path class="st17" d="M225.3,208.8c-2.7,0.1-5.4,0-8.1,0.1c-0.1,0-0.1,0.2,0,0.2C219.9,209.2,222.6,209,225.3,208.8
									C225.4,208.8,225.4,208.8,225.3,208.8L225.3,208.8z"/>
							</g>
						</g>
						<g>
							<g>
								<path class="st17" d="M212.3,209.2c-3.1,0-6.3-0.2-9.4,0c-0.1,0-0.1,0.2,0,0.2C206,209.6,209.2,209.4,212.3,209.2
									C212.3,209.3,212.3,209.2,212.3,209.2L212.3,209.2z"/>
							</g>
						</g>
						<g>
							<g>
								<path class="st17" d="M206.2,207.5c-4.7-0.2-9.5-0.3-14.2,0c-0.1,0-0.1,0.1,0,0.1C196.7,207.9,201.5,207.8,206.2,207.5
									C206.3,207.6,206.3,207.5,206.2,207.5L206.2,207.5z"/>
							</g>
						</g>
						<g>
							<g>
								<path class="st17" d="M200.2,208.8c-1.5-0.1-3.1-0.2-4.6-0.1c-0.1,0-0.1,0.2,0,0.2C197.1,209.1,198.7,209.1,200.2,208.8
									C200.3,208.9,200.3,208.8,200.2,208.8L200.2,208.8z"/>
							</g>
						</g>
					</g>
					<rect x="168.5" y="233.2" class="st15" width="10.9" height="3"/>
					<g>
						<g>
							<rect x="272.6" y="154.8" class="st15" width="4.8" height="79.2"/>
						</g>
						<g class="st16">
							<g>
								<g>
									<path class="st17" d="M274,157.8c-0.2,5.2-0.4,10.4-0.3,15.6c0,0.1,0.2,0.1,0.2,0c0.5-5.1,0.5-10.5,0.2-15.6
										C274.2,157.7,274,157.7,274,157.8L274,157.8z"/>
								</g>
							</g>
							<g>
								<g>
									<path class="st17" d="M274.9,172c-0.1,2.4-0.2,4.8-0.1,7.1c0,0.2,0.2,0.2,0.2,0C275.2,176.7,275,174.3,274.9,172
										C275.1,171.9,274.9,171.9,274.9,172L274.9,172z"/>
								</g>
							</g>
							<g>
								<g>
									<path class="st17" d="M276.3,169.5c-0.1,6.2-0.2,12.5-0.1,18.8c0,0.1,0.1,0.1,0.1,0C276.7,182.1,276.8,175.8,276.3,169.5
										C276.4,169.5,276.3,169.5,276.3,169.5L276.3,169.5z"/>
								</g>
							</g>
							<g>
								<g>
									<path class="st17" d="M274.1,197.9c0.1,4.5,0,9,0.2,13.5c0,0.1,0.2,0.1,0.2,0C274.7,206.9,274.4,202.4,274.1,197.9
										C274.2,197.9,274.1,197.9,274.1,197.9L274.1,197.9z"/>
								</g>
							</g>
							<g>
								<g>
									<path class="st17" d="M275.6,196c0.1,2.7,0,5.4,0.1,8.1c0,0.1,0.2,0.1,0.2,0C276,201.4,275.8,198.7,275.6,196
										C275.7,195.9,275.6,195.9,275.6,196L275.6,196z"/>
								</g>
							</g>
							<g>
								<g>
									<path class="st17" d="M276,209c0,3.1-0.2,6.3,0,9.4c0,0.1,0.2,0.1,0.2,0C276.4,215.3,276.2,212.1,276,209
										C276.1,209,276,209,276,209L276,209z"/>
								</g>
							</g>
							<g>
								<g>
									<path class="st17" d="M274.4,215.1c-0.2,4.7-0.3,9.5,0,14.2c0,0.1,0.1,0.1,0.1,0C274.7,224.5,274.6,219.8,274.4,215.1
										C274.4,215,274.4,215,274.4,215.1L274.4,215.1z"/>
								</g>
							</g>
							<g>
								<g>
									<path class="st17" d="M275.7,221.1c-0.1,1.5-0.2,3.1-0.1,4.6c0,0.1,0.2,0.1,0.2,0C275.9,224.2,275.9,222.6,275.7,221.1
										C275.8,221,275.7,221,275.7,221.1L275.7,221.1z"/>
								</g>
							</g>
						</g>
						<rect x="269.6" y="233.2" class="st15" width="10.9" height="3"/>
					</g>
				</g>
				<path class="st18" d="M285.6,169.7H164.7c-0.9,0-1.6-0.7-1.6-1.6v-13.9c0-0.9,0.7-1.6,1.6-1.6h120.8c0.9,0,1.6,0.7,1.6,1.6v13.9
					C287.1,169,286.4,169.7,285.6,169.7z"/>
				<path class="st18" d="M285.6,199.6H164.7c-0.9,0-1.6-0.7-1.6-1.6v-13.9c0-0.9,0.7-1.6,1.6-1.6h120.8c0.9,0,1.6,0.7,1.6,1.6V198
					C287.1,198.9,286.4,199.6,285.6,199.6z"/>
				<path class="st19" d="M287.1,184.7v12.8c0,1.2-1,2.1-2.2,2.1H165.4c-1.2,0-2.2-1-2.2-2.1v-2.8h109.4c5,0,9-4,9-9v-3.1h3.3
					C286.2,182.6,287.1,183.5,287.1,184.7z"/>
				<path class="st19" d="M287.1,154.8v12.8c0,1.2-1,2.1-2.2,2.1H165.2c-1.2,0-2.2-1-2.2-2.1v-2.8h109.6c5,0,9-4,9-9v-3.1h3.3
					C286.2,152.6,287.1,153.6,287.1,154.8z"/>
				<g>
					<g>
						<defs>
							<path id="SVGID_1_" d="M285.6,169.7H164.7c-0.9,0-1.6-0.7-1.6-1.6v-13.9c0-0.9,0.7-1.6,1.6-1.6h120.9c0.9,0,1.6,0.7,1.6,1.6
								v13.9C287.2,169,286.5,169.7,285.6,169.7z M287.2,198v-13.9c0-0.9-0.7-1.6-1.6-1.6H164.7c-0.9,0-1.6,0.7-1.6,1.6V198
								c0,0.9,0.7,1.6,1.6,1.6h120.9C286.5,199.6,287.2,198.9,287.2,198z"/>
						</defs>
						<clipPath id="SVGID_00000036249027465062020760000001907004354684350378_">
							<use xlink:href="#SVGID_1_"  style="overflow:visible;"/>
						</clipPath>
						<g style="clip-path:url(#SVGID_00000036249027465062020760000001907004354684350378_);">
							
								<rect x="125.3" y="171.9" transform="matrix(0.5459 -0.8378 0.8378 0.5459 -71.117 221.9663)" class="st21" width="87.8" height="9.3"/>
							
								<rect x="149" y="171.9" transform="matrix(0.5459 -0.8378 0.8378 0.5459 -60.3528 241.8217)" class="st21" width="87.8" height="9.3"/>
							
								<rect x="172.7" y="171.9" transform="matrix(0.5459 -0.8378 0.8378 0.5459 -49.5873 261.678)" class="st21" width="87.8" height="9.3"/>
							
								<rect x="196.4" y="171.9" transform="matrix(0.5459 -0.8378 0.8378 0.5459 -38.8241 281.5322)" class="st21" width="87.8" height="9.3"/>
							
								<rect x="220.1" y="171.9" transform="matrix(0.5459 -0.8378 0.8378 0.5459 -28.0598 301.3875)" class="st21" width="87.8" height="9.3"/>
							
								<rect x="243.4" y="171.9" transform="matrix(0.5459 -0.8378 0.8378 0.5459 -17.4819 320.9086)" class="st21" width="87.8" height="9.3"/>
						</g>
					</g>
				</g>
				<path class="st22" d="M238.4,162.1h-70.1c-1.2,0-2.2-1-2.2-2.2v-1.5c0-1.2,1-2.2,2.2-2.2h70.1c1.2,0,2.2,1,2.2,2.2v1.5
					C240.6,161.1,239.6,162.1,238.4,162.1z"/>
				<path class="st22" d="M238.4,192.2h-70.1c-1.2,0-2.2-1-2.2-2.2v-1.5c0-1.2,1-2.2,2.2-2.2h70.1c1.2,0,2.2,1,2.2,2.2v1.5
					C240.6,191.2,239.6,192.2,238.4,192.2z"/>
			</g>
		</g>
		<g>
			<path class="st4" d="M145,111.1c0,0.7-0.6,1.3-1.3,1.3s-1.3-0.6-1.3-1.3c0-0.7,0.6-1.3,1.3-1.3C144.4,109.8,145,110.4,145,111.1z
				"/>
		</g>
		<g>
			<path class="st4" d="M150.8,111.1c0,0.7-0.6,1.3-1.3,1.3s-1.3-0.6-1.3-1.3c0-0.7,0.6-1.3,1.3-1.3
				C150.2,109.8,150.8,110.4,150.8,111.1z"/>
		</g>
		<g>
			<path class="st4" d="M156.6,111.1c0,0.7-0.6,1.3-1.3,1.3s-1.3-0.6-1.3-1.3c0-0.7,0.6-1.3,1.3-1.3
				C156,109.8,156.6,110.4,156.6,111.1z"/>
		</g>
		<g>
			<g>
				<g>
					<path class="st1" d="M97.3,231.8H71.1l0.2-0.6l1.9-5.3l2.1-5.8l2.2-6.1l2.1-5.8l2.6-7.2c0.6-1.8,3.1-1.8,3.8,0l2.6,7.2l2.1,5.8
						l2.2,6.1l2.1,5.8l1.9,5.2L97.3,231.8z"/>
					<path class="st1" d="M98.8,236H69.6c-0.8,0-1.5-0.7-1.5-1.5v-1.6c0-0.8,0.7-1.5,1.5-1.5h29.2c0.8,0,1.5,0.7,1.5,1.5v1.6
						C100.3,235.3,99.6,236,98.8,236z"/>
				</g>
			</g>
			<polygon class="st4" points="90.8,214.1 77.6,214.1 79.7,208.3 88.7,208.3 			"/>
			<polygon class="st4" points="95.2,226 73.2,226 75.3,220.2 93,220.3 			"/>
		</g>
		<g>
			<g>
				<g>
					<path class="st1" d="M399.8,231.8h-26.2l0.2-0.6l1.9-5.3l2.1-5.8l2.2-6.1l2.1-5.8l2.6-7.2c0.6-1.8,3.1-1.8,3.8,0l2.6,7.2
						l2.1,5.8l2.2,6.1l2.1,5.8l1.9,5.2L399.8,231.8z"/>
					<path class="st1" d="M401.3,236h-29.2c-0.8,0-1.5-0.7-1.5-1.5v-1.6c0-0.8,0.7-1.5,1.5-1.5h29.2c0.8,0,1.5,0.7,1.5,1.5v1.6
						C402.8,235.3,402.1,236,401.3,236z"/>
				</g>
			</g>
			<polygon class="st4" points="393.3,214.1 380.1,214.1 382.2,208.3 391.2,208.3 			"/>
			<polygon class="st4" points="397.7,226 375.7,226 377.9,220.2 395.6,220.3 			"/>
		</g>
		<g>
			<line class="st23" x1="157.4" y1="134.4" x2="196.5" y2="134.4"/>
			<line class="st23" x1="170" y1="129.5" x2="209" y2="129.5"/>
		</g>
		<g>
			<line class="st24" x1="404.7" y1="185.7" x2="443.7" y2="185.7"/>
		</g>
		<g>
			<line class="st23" x1="270.3" y1="145.6" x2="294.8" y2="145.6"/>
			<line class="st23" x1="278.1" y1="140.8" x2="302.6" y2="140.8"/>
		</g>
		<g>
			<line class="st24" x1="34" y1="167.9" x2="58.4" y2="167.9"/>
		</g>
		<g>
			<line class="st24" x1="294.5" y1="45.5" x2="319" y2="45.5"/>
		</g>
		<g>
			<line class="st23" x1="145.4" y1="207.6" x2="160.4" y2="207.6"/>
			<line class="st23" x1="150.2" y1="202.8" x2="165.2" y2="202.8"/>
		</g>
		<g>
			<path class="st1" d="M204.1,91.1h-36.4c-2.2,0-3.6-2.4-2.5-4.3l7.5-12.8l2.2-3.7l1.8-3l6.7-11.5c1.1-1.9,3.8-1.9,5,0l18.2,30.9
				C207.7,88.6,206.3,91.1,204.1,91.1z"/>
			<path class="st4" d="M188.9,83.8c0,1.6-1.3,2.9-2.9,2.9c-1.6,0-2.9-1.3-2.9-2.9s1.3-2.9,2.9-2.9
				C187.5,80.9,188.9,82.2,188.9,83.8z"/>
			<path class="st4" d="M188.9,69c0,1.6-1.3,9.5-2.9,9.5c-1.6,0-2.9-7.9-2.9-9.5s1.3-2.9,2.9-2.9C187.5,66.1,188.9,67.4,188.9,69z"
				/>
		</g>
		<line class="st25" x1="173.2" y1="63.3" x2="166.4" y2="74.6"/>
	</g>
</g>
<g id="DESIGNED_BY_FREEPIK">
</g>
</svg>
